<mxfile host="app.diagrams.net" agent="Mozilla/5.0 (Windows NT 10.0; Win64; x64) AppleWebKit/537.36 (KHTML, like Gecko) Chrome/137.0.0.0 Safari/537.36" version="28.1.0">
  <diagram name="Page-1" id="IvUOfNs0p1Amg6ZtGWH0">
    <mxGraphModel dx="1426" dy="710" grid="1" gridSize="10" guides="1" tooltips="1" connect="1" arrows="1" fold="1" page="1" pageScale="1" pageWidth="1100" pageHeight="1700" math="0" shadow="0">
      <root>
        <mxCell id="0" />
        <mxCell id="1" parent="0" />
        <mxCell id="79uC6VFvHPYnS4EcvJgh-1" value="RE_XCP_10ms" style="rounded=1;whiteSpace=wrap;html=1;" vertex="1" parent="1">
          <mxGeometry x="227.5" y="60" width="120" height="60" as="geometry" />
        </mxCell>
        <mxCell id="79uC6VFvHPYnS4EcvJgh-2" value="xcp_usc_smc_data.xcp_usc_smc_initialized == CODED_TRUE" style="rhombus;whiteSpace=wrap;html=1;" vertex="1" parent="1">
          <mxGeometry x="140" y="160" width="295" height="90" as="geometry" />
        </mxCell>
        <mxCell id="79uC6VFvHPYnS4EcvJgh-3" value="retvalue_usc_smc = SWC_Xcp_Flash_sequence()" style="rounded=1;whiteSpace=wrap;html=1;" vertex="1" parent="1">
          <mxGeometry x="182.5" y="290" width="210" height="70" as="geometry" />
        </mxCell>
        <mxCell id="79uC6VFvHPYnS4EcvJgh-4" value="" style="rhombus;whiteSpace=wrap;html=1;" vertex="1" parent="1">
          <mxGeometry x="477.5" y="282.5" width="260" height="85" as="geometry" />
        </mxCell>
      </root>
    </mxGraphModel>
  </diagram>
</mxfile>
